<svg width="36" height="36" viewBox="0 0 36 36" fill="none" xmlns="http://www.w3.org/2000/svg">
<path d="M32.998 0C34.6546 0.000100734 35.9979 1.34249 35.998 2.99902V32.9971C35.998 34.6538 34.6547 35.997 32.998 35.9971H3C1.34325 35.9971 0 34.6538 0 32.9971V2.99902C0.000173241 1.34242 1.34336 0 3 0H32.998ZM21.4609 8.33789C18.8798 8.33789 16.4385 9.34197 14.624 11.1562L14.4297 11.3516C13.9653 11.276 13.5435 11.2324 13.0791 11.2324C10.9191 11.2325 8.82368 12.0853 7.2793 13.6621C4.0717 16.8697 4.07188 22.054 7.2793 25.2617C8.82368 26.8061 10.8759 27.6601 13.0791 27.6602H21.666C24.2148 27.6169 26.5804 26.612 28.3516 24.8408C32.0883 21.0499 32.0877 14.9039 28.2969 11.1562C26.4825 9.34211 24.0419 8.338 21.4609 8.33789ZM13.1445 12.9707C13.49 12.9707 13.7601 13.0145 14.0732 13.0469C14.4187 13.1224 14.7317 13.1655 15.0771 13.2734C15.6928 13.4678 16.2766 13.7813 16.7734 14.127C17.0002 14.3213 17.2813 14.4724 17.4648 14.71L17.6592 14.9043L20.2832 17.5293C20.6287 17.8749 20.6288 18.415 20.2832 18.8037C20.089 18.9979 19.8946 19.0732 19.668 19.0732C19.4412 19.0732 19.203 18.9981 19.0518 18.8037L16.8916 16.6436L16.4277 16.1787C16.3521 16.1031 16.2766 16.0599 16.2334 15.9844C15.6178 15.4444 14.8832 15.0985 14.0732 14.9365C13.8032 14.8609 13.4897 14.8613 13.2197 14.8613H13.1006C11.902 14.9046 10.8219 15.3687 9.96875 16.2109C8.15438 18.0253 8.15455 20.9306 9.96875 22.7451C10.8543 23.6307 11.9776 24.0956 13.252 24.0957H14.0625L14.8398 24.8301C15.2286 25.2189 15.6176 25.6079 16.082 25.8779H13.1006V25.8887C11.3619 25.8886 9.77394 25.1541 8.5752 23.9121C6.05895 21.3957 6.05904 17.3454 8.5752 14.8613C9.77394 13.6626 11.3943 12.9708 13.1006 12.9707H13.1445ZM21.3955 10.0879C23.4044 10.0879 25.4136 10.865 26.958 12.3662C30.1117 15.4875 30.1112 20.4775 27.0547 23.5664C26.2448 24.3762 25.2732 24.9921 24.1934 25.3809C23.8477 25.4997 23.5341 25.5755 23.1885 25.6943C22.6809 25.8131 22.1405 25.8887 21.6006 25.8887H21.4502C19.5926 25.8887 17.8532 25.2729 16.46 24.1064C16.2656 23.9553 16.0713 23.7606 15.877 23.5986L12.1611 19.8838C11.8156 19.5383 11.8158 18.9982 12.1611 18.6094C12.3555 18.415 12.5505 18.3389 12.7773 18.3389C13.004 18.3389 13.2414 18.4151 13.3926 18.6094L17.0645 22.2812C17.4101 22.6269 17.7997 22.897 18.1885 23.167C19.1172 23.75 20.1971 24.0527 21.3525 24.0527C21.86 24.0527 22.3999 23.9771 22.8643 23.8584C23.1774 23.7828 23.48 23.6637 23.75 23.5449C24.4412 23.2317 25.1004 22.8107 25.6836 22.2275C28.0381 19.8731 28.0381 16.0059 25.6836 13.6406C24.4848 12.4418 22.94 11.8584 21.3955 11.8584C20.1967 11.8584 19.0407 12.2043 17.9932 12.9062C17.4856 12.5175 16.9456 12.1723 16.3301 11.9023C17.7989 10.7035 19.6135 10.0879 21.3955 10.0879Z" fill="white"/>
</svg>
