<svg width="36" height="36" viewBox="0 0 36 36" fill="none" xmlns="http://www.w3.org/2000/svg">
<g clip-path="url(#clip0_121_14)">
<path d="M11.9992 35.9978C15.311 35.9978 17.9989 33.3099 17.9989 29.9981V23.9985H11.9992C8.68746 23.9985 5.99963 26.6864 5.99963 29.9981C5.99963 33.3099 8.68746 35.9978 11.9992 35.9978Z" fill="white"/>
<path d="M5.99963 17.9991C5.99963 14.6873 8.68746 11.9995 11.9992 11.9995H17.9989V23.9987H11.9992C8.68746 23.9987 5.99963 21.3109 5.99963 17.9991Z" fill="white"/>
<path d="M5.99963 5.99961C5.99963 2.68783 8.68746 0 11.9992 0H17.9989V11.9992H11.9992C8.68746 11.9992 5.99963 9.3114 5.99963 5.99961Z" fill="white"/>
<path d="M17.9988 0H23.9984C27.3102 0 29.998 2.68783 29.998 5.99961C29.998 9.3114 27.3102 11.9992 23.9984 11.9992H17.9988V0Z" fill="white"/>
<path d="M29.998 17.9991C29.998 21.3109 27.3102 23.9987 23.9984 23.9987C20.6866 23.9987 17.9988 21.3109 17.9988 17.9991C17.9988 14.6873 20.6866 11.9995 23.9984 11.9995C27.3102 11.9995 29.998 14.6873 29.998 17.9991Z" fill="white"/>
</g>
<defs>
<clipPath id="clip0_121_14">
<rect width="35.9977" height="35.9977" fill="white"/>
</clipPath>
</defs>
</svg>
