<svg width="36" height="36" viewBox="0 0 36 36" fill="none" xmlns="http://www.w3.org/2000/svg">
<g clip-path="url(#clip0_121_7)">
<path d="M33.7015 0H2.29951C1.02908 0 0 1.02908 0 2.29951V33.7015C0 34.9686 1.02908 36.001 2.29951 36.001H33.7015C34.9686 36.001 36.001 34.9719 36.001 33.7015V2.29615C35.9977 1.02908 34.9686 0 33.7015 0ZM16.3446 20.29C16.3446 21.2889 16.2507 22.1436 16.0597 22.8476C15.8686 23.5515 15.5803 24.1146 15.1982 24.5571C14.8127 24.9929 14.3334 25.3147 13.7602 25.5158C13.187 25.7203 12.5199 25.8208 11.759 25.8208C11.0886 25.8208 10.4852 25.7136 9.94218 25.5057C8.87958 25.1069 8.04827 24.2521 7.6829 23.1794C7.46837 22.5794 7.36445 21.9492 7.37451 21.3123V20.8632H9.52988C9.52988 22.871 10.274 23.8766 11.7623 23.8766C12.1445 23.8766 12.4797 23.8331 12.7814 23.7426C13.0797 23.6487 13.3311 23.4811 13.5389 23.2264C13.7468 22.9749 13.901 22.6263 14.0082 22.1738C14.1155 21.7213 14.1691 21.1347 14.1691 20.4073V9.17121H16.3513L16.3446 20.29ZM28.3818 23.5515C28.1539 24.0107 27.8321 24.4163 27.4365 24.7415C26.9941 25.0968 26.4845 25.3683 25.9415 25.5359C25.3549 25.7236 24.6979 25.8175 23.9705 25.8175C20.7492 25.8175 19.0497 24.5471 18.8754 21.9995H20.9939C21.0039 23.4375 21.9894 24.1582 23.947 24.1582C24.3828 24.1582 24.7716 24.1113 25.1035 24.0141C25.4387 23.9202 25.7169 23.7861 25.9382 23.6185C26.3706 23.3068 26.6253 22.8073 26.622 22.2744C26.632 22.0397 26.5851 21.8084 26.4912 21.5939C26.4041 21.4196 26.2331 21.2688 25.9817 21.1347C25.6465 20.9704 25.2979 20.8397 24.9359 20.7458C24.356 20.5782 23.7727 20.4173 23.1861 20.2665C22.4856 20.0922 21.8788 19.9179 21.3727 19.7436C20.9235 19.6028 20.5011 19.3916 20.119 19.1134C19.8006 18.8754 19.5492 18.5603 19.3916 18.1983C19.2341 17.8329 19.157 17.3737 19.157 16.8206C19.157 16.3345 19.2609 15.882 19.4654 15.463C19.6732 15.0474 19.9648 14.6853 20.3536 14.3769C20.7358 14.0719 21.2017 13.8339 21.7447 13.6596C22.3347 13.4786 22.9515 13.3914 23.5683 13.3981C26.6823 13.3981 28.2678 14.5043 28.3148 16.72H26.2298C26.156 15.6138 25.3214 15.0574 23.7258 15.0574C23.3705 15.0574 23.0453 15.0943 22.7403 15.1647C22.4353 15.2351 22.1772 15.3356 21.9526 15.4697C21.728 15.6004 21.557 15.7647 21.4297 15.9591C21.3056 16.1602 21.2386 16.3949 21.2453 16.6329C21.2453 16.8642 21.2755 17.0552 21.3324 17.2027C21.3894 17.3536 21.5269 17.491 21.7481 17.6184C21.966 17.7458 22.2911 17.8731 22.7202 17.9972C23.1493 18.1212 23.7359 18.2754 24.48 18.4564C25.1974 18.6307 25.8242 18.8084 26.3538 18.9961C26.8801 19.1838 27.3192 19.4084 27.6745 19.6732C28.0265 19.9346 28.2846 20.2598 28.4556 20.6386C28.6232 21.0174 28.7103 21.4933 28.7103 22.0632C28.717 22.6029 28.603 23.0956 28.3818 23.5515Z" fill="white"/>
</g>
<defs>
<clipPath id="clip0_121_7">
<rect width="35.9977" height="36.001" fill="white"/>
</clipPath>
</defs>
</svg>
